<svg id="visual" viewBox="0 0 960 540" width="960" height="540" xmlns="http://www.w3.org/2000/svg" xmlns:xlink="http://www.w3.org/1999/xlink" version="1.1"><path d="M0 383L53.3 380C106.7 377 213.3 371 320 366.7C426.7 362.3 533.3 359.7 640 361.3C746.7 363 853.3 369 906.7 372L960 375L960 541L906.7 541C853.3 541 746.7 541 640 541C533.3 541 426.7 541 320 541C213.3 541 106.7 541 53.3 541L0 541Z" fill="#fa7268"></path><path d="M0 481L53.3 476C106.7 471 213.3 461 320 450.5C426.7 440 533.3 429 640 429C746.7 429 853.3 440 906.7 445.5L960 451L960 541L906.7 541C853.3 541 746.7 541 640 541C533.3 541 426.7 541 320 541C213.3 541 106.7 541 53.3 541L0 541Z" fill="#c62368"></path></svg>